<svg width="128" height="128" viewBox="0 0 128 128" fill="none" xmlns="http://www.w3.org/2000/svg">
<mask id="mask0_73_94" style="mask-type:alpha" maskUnits="userSpaceOnUse" x="12" y="1" width="103" height="126">
<path d="M16.325 37.087C16.325 35.4124 16.8949 33.7876 17.941 32.4799L37.7107 7.76787C39.1102 6.01841 41.2292 5 43.4696 5H63.525H103.35C107.423 5 110.725 8.3019 110.725 12.375V115.625C110.725 119.698 107.423 123 103.35 123H23.7C19.6269 123 16.325 119.698 16.325 115.625V64V37.087Z" stroke="white" stroke-width="7.375"/>
<line x1="39.1876" y1="35.2377" x2="92.2876" y2="35.2377" stroke="white" stroke-width="4.425" stroke-linecap="round"/>
<line x1="39.1876" y1="47.0375" x2="92.2876" y2="47.0375" stroke="white" stroke-width="4.425" stroke-linecap="round"/>
<line x1="39.1876" y1="58.8373" x2="92.2876" y2="58.8373" stroke="white" stroke-width="4.425" stroke-linecap="round"/>
<line x1="39.1876" y1="70.6376" x2="92.2876" y2="70.6376" stroke="white" stroke-width="4.425" stroke-linecap="round"/>
<rect x="39.1876" y="91.2877" width="72.275" height="20.65" rx="2.2125" stroke="white" stroke-width="4.425"/>
<path d="M59.1838 107.55V94.6771H63.5334C64.5433 94.6771 65.3687 94.8594 66.0099 95.2239C66.6552 95.5843 67.1329 96.0725 67.443 96.6884C67.7531 97.3044 67.9081 97.9916 67.9081 98.7501C67.9081 99.5085 67.7531 100.198 67.443 100.818C67.1371 101.438 66.6636 101.933 66.0224 102.301C65.3813 102.666 64.56 102.848 63.5585 102.848H60.4409V101.465H63.5082C64.1996 101.465 64.7549 101.346 65.1739 101.107C65.5929 100.868 65.8967 100.546 66.0853 100.139C66.2781 99.7285 66.3744 99.2655 66.3744 98.7501C66.3744 98.2347 66.2781 97.7737 66.0853 97.3673C65.8967 96.9608 65.5908 96.6423 65.1676 96.4119C64.7444 96.1772 64.1829 96.0599 63.4831 96.0599H60.7426V107.55H59.1838ZM74.3916 107.55H70.4192V94.6771H74.5676C75.8163 94.6771 76.8849 94.9348 77.7732 95.4502C78.6616 95.9614 79.3425 96.6968 79.816 97.6564C80.2895 98.6118 80.5263 99.7558 80.5263 101.088C80.5263 102.429 80.2874 103.584 79.8097 104.552C79.332 105.515 78.6364 106.257 77.7229 106.777C76.8094 107.292 75.699 107.55 74.3916 107.55ZM71.978 106.167H74.291C75.3554 106.167 76.2374 105.962 76.9372 105.551C77.637 105.14 78.1587 104.556 78.5023 103.797C78.8459 103.039 79.0177 102.136 79.0177 101.088C79.0177 100.049 78.848 99.1545 78.5086 98.4044C78.1692 97.6501 77.6622 97.0719 76.9875 96.6696C76.3129 96.2631 75.4727 96.0599 74.467 96.0599H71.978V106.167ZM83.141 107.55V94.6771H90.8596V96.0599H84.6998V100.409H90.2814V101.792H84.6998V107.55H83.141Z" fill="white"/>
</mask>
<g mask="url(#mask0_73_94)">
<rect width="128" height="128" fill="url(#paint0_linear_73_94)"/>
</g>
<defs>
<linearGradient id="paint0_linear_73_94" x1="0.973427" y1="2.75469e-06" x2="127.027" y2="128" gradientUnits="userSpaceOnUse">
<stop stop-color="#912978"/>
<stop offset="0.485577" stop-color="#E02F52"/>
<stop offset="1" stop-color="#EF6528"/>
</linearGradient>
</defs>
</svg>
