<svg width="128" height="128" viewBox="0 0 128 128" fill="none" xmlns="http://www.w3.org/2000/svg">
<rect width="128" height="128" rx="15" fill="url(#paint0_linear_73_2)"/>
<path d="M32 45.7539C32 44.6185 32.3864 43.517 33.0957 42.6304L46.4988 25.8765C47.4476 24.6904 48.8842 24 50.4031 24H64H91C93.7614 24 96 26.2386 96 29V99C96 101.761 93.7614 104 91 104H37C34.2386 104 32 101.761 32 99V64V45.7539Z" stroke="white" stroke-width="5"/>
<line x1="47" y1="45" x2="84" y2="45" stroke="white" stroke-width="2" stroke-linecap="round"/>
<line x1="47" y1="53" x2="84" y2="53" stroke="white" stroke-width="2" stroke-linecap="round"/>
<line x1="47" y1="61" x2="84" y2="61" stroke="white" stroke-width="2" stroke-linecap="round"/>
<line x1="47" y1="69" x2="84" y2="69" stroke="white" stroke-width="2" stroke-linecap="round"/>
<rect x="47" y="82" width="50" height="15" rx="2" stroke="white" stroke-width="2"/>
<path d="M61.0568 94V85.2727H64.0057C64.6903 85.2727 65.25 85.3963 65.6847 85.6435C66.1222 85.8878 66.446 86.2188 66.6562 86.6364C66.8665 87.054 66.9716 87.5199 66.9716 88.0341C66.9716 88.5483 66.8665 89.0156 66.6562 89.4361C66.4489 89.8565 66.1278 90.1918 65.6932 90.4418C65.2585 90.6889 64.7017 90.8125 64.0227 90.8125H61.9091V89.875H63.9886C64.4574 89.875 64.8338 89.794 65.1179 89.6321C65.402 89.4702 65.608 89.2514 65.7358 88.9759C65.8665 88.6974 65.9318 88.3835 65.9318 88.0341C65.9318 87.6847 65.8665 87.3722 65.7358 87.0966C65.608 86.821 65.4006 86.6051 65.1136 86.4489C64.8267 86.2898 64.446 86.2102 63.9716 86.2102H62.1136V94H61.0568ZM71.3672 94H68.674V85.2727H71.4865C72.3331 85.2727 73.0575 85.4474 73.6598 85.7969C74.2621 86.1435 74.7237 86.642 75.0447 87.2926C75.3658 87.9403 75.5263 88.7159 75.5263 89.6193C75.5263 90.5284 75.3643 91.3111 75.0405 91.9673C74.7166 92.6207 74.245 93.1236 73.6257 93.4759C73.0064 93.8253 72.2536 94 71.3672 94ZM69.7308 93.0625H71.299C72.0206 93.0625 72.6186 92.9233 73.093 92.6449C73.5675 92.3665 73.9212 91.9702 74.1541 91.456C74.3871 90.9418 74.5036 90.3295 74.5036 89.6193C74.5036 88.9148 74.3885 88.3082 74.1584 87.7997C73.9283 87.2884 73.5845 86.8963 73.1271 86.6236C72.6697 86.348 72.1001 86.2102 71.4183 86.2102H69.7308V93.0625ZM77.299 94V85.2727H82.532V86.2102H78.3558V89.1591H82.1399V90.0966H78.3558V94H77.299Z" fill="white"/>
<defs>
<linearGradient id="paint0_linear_73_2" x1="0" y1="0" x2="127" y2="128" gradientUnits="userSpaceOnUse">
<stop stop-color="#8E297A"/>
<stop offset="0.774038" stop-color="#EF6428"/>
</linearGradient>
</defs>
</svg>
